<svg xmlns="http://www.w3.org/2000/svg" viewBox="0 0 307.7 177.15"><defs><style>.cls-1{opacity:0.7;}.cls-2{fill:#b8d0cd;}</style></defs><title>tablets bg</title><g id="Layer_2" data-name="Layer 2"><g id="Layer_2-2" data-name="Layer 2"><g class="cls-1"><path class="cls-2" d="M158.71,119.35l-23.9,10.24a6.25,6.25,0,0,0,4.93,11.5l23.9-10.24a6.25,6.25,0,1,0-4.93-11.5Zm-7.58,15.32-11.64,5a4.85,4.85,0,0,1-3.82-8.91l11.64-5Z"/><path class="cls-2" d="M135.49,133.83a1.32,1.32,0,0,0,1.73.69l6.36-2.72a1.32,1.32,0,0,0-1-2.42l-6.36,2.72A1.32,1.32,0,0,0,135.49,133.83Z"/><path class="cls-2" d="M222,98.35l-28.45-21A8.51,8.51,0,0,0,183.45,91l28.45,21A8.51,8.51,0,1,0,222,98.35ZM198.81,100,184.95,89.74a6.59,6.59,0,0,1,7.84-10.6l13.86,10.25Z"/><path class="cls-2" d="M189,81a1.79,1.79,0,0,0,.38,2.51L197,89.14a1.79,1.79,0,0,0,2.13-2.88l-7.57-5.59A1.79,1.79,0,0,0,189,81Z"/><path class="cls-2" d="M229.14,136.91a16.86,16.86,0,1,0,23.84,0A16.86,16.86,0,0,0,229.14,136.91Zm23,19.88a2.16,2.16,0,0,1-3.05,3.06l-19.08-19a2.16,2.16,0,0,1,3.05-3.06Z"/><path class="cls-2" d="M257.61,81a8.43,8.43,0,1,0-5.85,10.39A8.43,8.43,0,0,0,257.61,81Zm-14.32,5.12a1.08,1.08,0,0,1-.58-2.08l13-3.62a1.08,1.08,0,0,1,.58,2.08Z"/><path class="cls-2" d="M280.89,24.37a12,12,0,1,0,16.85-2A12,12,0,0,0,280.89,24.37Zm17.9,12.16a1.54,1.54,0,1,1-1.91,2.42L281.83,27.07a1.54,1.54,0,0,1,1.91-2.42Z"/><path class="cls-2" d="M304.78.6a5.39,5.39,0,1,0,2.32,7.25A5.39,5.39,0,0,0,304.78.6ZM301,9.53a.69.69,0,1,1-1.23-.63l3.94-7.65a.69.69,0,1,1,1.23.63Z"/><path class="cls-2" d="M31.87,174.75c3.34-4.36-.83-13.16-9.31-19.66s-18.07-8.24-21.41-3.88.83,13.16,9.31,19.66S28.53,179.1,31.87,174.75Zm-20.54-7.05L20,156.35a1.24,1.24,0,0,1,1.75-.23h0a1.24,1.24,0,0,1,.23,1.75l-8.69,11.34a1.24,1.24,0,0,1-1.75.23h0A1.24,1.24,0,0,1,11.33,167.69Z"/></g></g></g></svg>