<?xml version="1.0" encoding="utf-8"?><!-- Uploaded to: SVG Repo, www.svgrepo.com, Generator: SVG Repo Mixer Tools -->
<svg version="1.1" id="designs" xmlns="http://www.w3.org/2000/svg" xmlns:xlink="http://www.w3.org/1999/xlink" 
	 width="800px" height="800px" viewBox="0 0 32 32" xml:space="preserve">
<style type="text/css">
	.sketchy_een{fill:#111918;}
</style>
<path class="sketchy_een" d="M28.149,4.966c-0.084-0.228-0.167-0.462-0.295-0.669c-0.155-0.253-0.341-0.498-0.529-0.728
	c-0.199-0.243-0.397-0.498-0.632-0.707c-0.56-0.495-1.286-0.811-2.033-0.859C24.621,2.001,24.582,2,24.544,2
	c-0.222,0-0.443,0.039-0.661,0.077c-0.36,0.063-0.701,0.189-1.033,0.337c-0.213,0.096-0.429,0.207-0.625,0.337
	c-0.228,0.151-0.429,0.335-0.632,0.518c-0.458,0.416-0.941,0.797-1.366,1.25c-0.199,0.213-0.402,0.425-0.617,0.625
	c-0.189,0.174-0.364,0.359-0.541,0.543c-0.318-0.294-0.649-0.576-1.014-0.805c-0.268-0.167-0.548-0.305-0.859-0.377
	c-0.182-0.042-0.364-0.069-0.547-0.069c-0.113,0-0.227,0.01-0.342,0.033c-0.284,0.055-0.563,0.19-0.809,0.343
	c-0.393,0.243-0.699,0.558-0.899,0.977c-0.171,0.358-0.284,0.719-0.282,1.121c0,0.171,0.027,0.343,0.071,0.508
	c0.071,0.276,0.238,0.487,0.41,0.705c0.136,0.171,0.291,0.32,0.449,0.469c-0.451,0.568-0.91,1.128-1.423,1.645
	c-0.54,0.546-1.087,1.087-1.65,1.61c-0.59,0.548-1.175,1.098-1.725,1.687c-0.523,0.562-1.06,1.113-1.568,1.69
	c-0.473,0.54-0.958,1.073-1.432,1.614c-0.171,0.194-0.341,0.387-0.512,0.581c-0.065,0.077-0.13,0.153-0.195,0.23
	c-0.042,0.049-0.084,0.107-0.13,0.156c-0.077,0.06-0.137,0.138-0.188,0.224c-0.23,0.145-0.395,0.388-0.393,0.675
	c0.006,0.826,0.029,1.652,0.048,2.478c0.015,0.639,0.029,1.286-0.016,1.925c-0.073,0.037-0.145,0.077-0.203,0.141
	c-0.22,0.241-0.422,0.496-0.638,0.738c-0.204,0.229-0.393,0.464-0.58,0.706c-0.088,0.111-0.177,0.224-0.256,0.341
	c-0.105,0.153-0.169,0.322-0.24,0.494c-0.084,0.205-0.167,0.41-0.234,0.621c-0.057,0.188-0.126,0.374-0.153,0.569
	c-0.027,0.186-0.05,0.362-0.046,0.55c0.004,0.241,0.044,0.483,0.077,0.72c0.094,0.675,0.565,1.292,1.15,1.627
	c0.355,0.205,0.734,0.28,1.133,0.333c0.297,0.038,0.602,0.065,0.901,0.056c0.443-0.013,0.887-0.146,1.257-0.387
	c0.314-0.205,0.548-0.462,0.772-0.759c0.356-0.471,0.468-1.069,0.458-1.648c-0.006-0.311-0.052-0.621-0.142-0.916
	c-0.084-0.278-0.172-0.554-0.307-0.811c-0.149-0.288-0.379-0.535-0.588-0.78c-0.072-0.085-0.145-0.17-0.218-0.255
	c0.09,0.002,0.179-0.004,0.269,0c0.402,0.015,0.799,0.063,1.198,0.088c0.629,0.042,1.255,0.094,1.882,0.13
	c0.105,0.006,0.205-0.014,0.297-0.053c0.234,0.016,0.472-0.053,0.641-0.232c0.293-0.312,0.586-0.627,0.87-0.949
	c0.462-0.529,0.912-1.063,1.399-1.569c1.077-1.119,2.075-2.309,3.139-3.442c0.297-0.318,0.59-0.638,0.885-0.956
	c0.31-0.335,0.638-0.657,0.954-0.989c0.31-0.326,0.611-0.659,0.928-0.979c0.296-0.297,0.615-0.569,0.936-0.839
	c0.075,0.056,0.145,0.118,0.219,0.174c0.188,0.148,0.381,0.301,0.59,0.416c0.37,0.205,0.799,0.27,1.217,0.295
	c0.56,0.031,1.161-0.159,1.523-0.607c0.092-0.113,0.184-0.228,0.263-0.351c0.1-0.151,0.153-0.333,0.215-0.504
	c0.079-0.213,0.169-0.422,0.23-0.64c0.046-0.161,0.067-0.324,0.088-0.491c0.044-0.362-0.082-0.694-0.243-1.01
	c-0.113-0.219-0.297-0.412-0.464-0.588c-0.057-0.059-0.117-0.117-0.174-0.174c-0.119-0.114-0.235-0.229-0.351-0.346
	c0.124-0.128,0.246-0.259,0.37-0.386c0.24-0.245,0.502-0.456,0.763-0.678c0.255-0.217,0.489-0.458,0.719-0.701
	c0.271-0.288,0.502-0.609,0.74-0.926c0.235-0.3,0.451-0.599,0.611-0.944c0.192-0.412,0.326-0.851,0.358-1.305
	C28.3,5.58,28.253,5.254,28.149,4.966z M26.2,4.488C26.2,4.487,26.2,4.487,26.2,4.488L26.2,4.488L26.2,4.488z M7.01,28.456
	c-0.028,0.004-0.056,0.007-0.084,0.011c0.031-0.004,0.061-0.008,0.091-0.012C7.015,28.455,7.013,28.456,7.01,28.456z M7.1,28.444
	c-0.001,0-0.002,0-0.003,0c0.037-0.005,0.074-0.01,0.111-0.016C7.172,28.434,7.136,28.439,7.1,28.444z M7.895,27.766
	c-0.052,0.103-0.111,0.2-0.178,0.293c-0.063,0.075-0.13,0.146-0.202,0.212c-0.065,0.043-0.131,0.083-0.199,0.12
	c-0.084,0.025-0.17,0.042-0.258,0.057c-0.244,0.022-0.502-0.001-0.748-0.031c-0.167-0.027-0.33-0.06-0.489-0.112
	c-0.06-0.033-0.118-0.069-0.175-0.107c-0.067-0.059-0.13-0.122-0.191-0.187c-0.035-0.052-0.067-0.106-0.096-0.161
	c-0.028-0.086-0.048-0.174-0.064-0.264c-0.016-0.174-0.021-0.35-0.008-0.524c0.037-0.17,0.096-0.333,0.149-0.5
	c0.057-0.179,0.122-0.355,0.191-0.529c0.056-0.119,0.122-0.228,0.198-0.334c0.094-0.123,0.188-0.245,0.282-0.368
	c0.149-0.183,0.311-0.357,0.475-0.528c0.046,0.055,0.09,0.112,0.134,0.169c-0.038-0.05-0.077-0.102-0.115-0.151
	c0.302,0.393,0.635,0.76,0.943,1.147c0.08,0.108,0.153,0.219,0.213,0.339c0.085,0.218,0.154,0.449,0.195,0.678
	c0.017,0.176,0.019,0.352,0.005,0.529C7.943,27.599,7.922,27.683,7.895,27.766z M18.944,15.143
	c-0.208-0.199-0.407-0.407-0.601-0.621c-0.295-0.324-0.594-0.642-0.901-0.954c-0.165-0.168-0.388-0.251-0.61-0.251
	c-0.225,0-0.45,0.084-0.616,0.251c-0.333,0.333-0.335,0.893,0,1.227c0.31,0.308,0.627,0.609,0.943,0.91
	c0.216,0.207,0.43,0.411,0.65,0.608c-0.23,0.233-0.459,0.468-0.682,0.708c-0.042,0.045-0.084,0.09-0.126,0.135
	c-0.006-0.004-0.009-0.01-0.016-0.014c-0.026-0.015-0.051-0.03-0.075-0.047c-0.23-0.195-0.447-0.408-0.668-0.611
	c-0.278-0.257-0.558-0.513-0.837-0.766c-0.171-0.155-0.387-0.238-0.601-0.238c-0.204,0-0.407,0.076-0.568,0.238
	c-0.303,0.303-0.341,0.872,0,1.169c0.331,0.291,0.671,0.575,1.014,0.857c0.146,0.119,0.289,0.238,0.435,0.358
	c0.081,0.067,0.165,0.131,0.245,0.199c-0.146,0.156-0.294,0.311-0.439,0.469c-0.123,0.134-0.25,0.264-0.372,0.399
	c-0.232-0.215-0.469-0.427-0.684-0.659c-0.295-0.324-0.579-0.657-0.86-0.995c-0.134-0.159-0.383-0.241-0.585-0.241
	c-0.22,0-0.431,0.088-0.586,0.241c-0.155,0.155-0.243,0.368-0.243,0.586c0,0.232,0.096,0.416,0.243,0.586
	c0.276,0.316,0.558,0.625,0.859,0.916c0.253,0.246,0.52,0.477,0.778,0.719c-0.036,0.036-0.069,0.075-0.105,0.112
	c-0.234,0.237-0.469,0.472-0.698,0.716c-0.171-0.174-0.336-0.354-0.5-0.532c-0.335-0.366-0.663-0.738-0.993-1.11
	c-0.149-0.168-0.364-0.247-0.581-0.247c-0.228,0-0.458,0.087-0.619,0.247c-0.339,0.339-0.312,0.859,0,1.202
	c0.513,0.562,1.053,1.099,1.585,1.645c-0.135,0.141-0.27,0.282-0.406,0.424c-0.112,0.117-0.225,0.237-0.344,0.347
	c-0.004,0-0.009,0-0.013,0c-0.19,0.002-0.379,0.002-0.569-0.017c-0.169-0.017-0.335-0.038-0.506-0.036
	c-0.182,0.002-0.362-0.006-0.544-0.019c-0.41-0.029-0.816-0.096-1.226-0.132c-0.299-0.026-0.597-0.032-0.895-0.038
	c0.004-0.558-0.003-1.117-0.003-1.675c0.002-0.715,0.021-1.43,0.031-2.146c0.054-0.041,0.106-0.084,0.151-0.135
	c0.073-0.084,0.146-0.171,0.219-0.255c0.149-0.178,0.289-0.362,0.445-0.537c0.481-0.541,0.958-1.083,1.432-1.631
	c1.027-1.18,2.07-2.351,3.218-3.419c1.143-1.062,2.263-2.154,3.263-3.354c0.157,0.155,0.313,0.308,0.471,0.464
	c0.207,0.205,0.412,0.416,0.617,0.625c0.192,0.196,0.362,0.406,0.554,0.6c0.391,0.395,0.807,0.755,1.205,1.14
	c0.163,0.159,0.32,0.326,0.498,0.468c0.232,0.188,0.465,0.375,0.7,0.559c0.008,0.006,0.014,0.014,0.021,0.02
	C19.913,14.089,19.425,14.612,18.944,15.143z M26.601,6.506c-0.1,0.211-0.218,0.415-0.357,0.604
	c-0.163,0.21-0.323,0.422-0.485,0.633c0.038-0.052,0.077-0.102,0.115-0.151c-0.376,0.477-0.828,0.895-1.297,1.278
	c-0.218,0.178-0.435,0.358-0.638,0.556c-0.232,0.226-0.448,0.466-0.686,0.686c-0.106,0.098-0.16,0.226-0.191,0.36
	c-0.05,0.05-0.104,0.094-0.143,0.159c-0.241,0.412-0.084,0.912,0.305,1.161c0.023,0.015,0.047,0.031,0.07,0.047
	c0.293,0.24,0.567,0.511,0.813,0.8c0.039,0.058,0.074,0.116,0.106,0.178c0.003,0.01,0.006,0.019,0.009,0.028
	c-0.001,0.03-0.002,0.06-0.004,0.09c-0.025,0.123-0.062,0.242-0.096,0.363c-0.042,0.151-0.079,0.305-0.128,0.454
	c-0.018,0.033-0.038,0.064-0.059,0.096c-0.014,0.015-0.028,0.031-0.043,0.045l0,0c-0.018,0.006-0.037,0.011-0.055,0.016
	c-0.067,0.001-0.134-0.002-0.201-0.008c-0.121-0.024-0.237-0.057-0.351-0.099c-0.063-0.035-0.123-0.072-0.182-0.114
	c0.028,0.022,0.056,0.044,0.084,0.066c-0.353-0.269-0.716-0.521-1.075-0.784c-0.143-0.125-0.271-0.267-0.423-0.385
	c-0.242-0.188-0.488-0.368-0.734-0.552c-0.383-0.308-0.739-0.644-1.11-0.968c-0.412-0.356-0.784-0.751-1.169-1.136
	c-0.454-0.452-0.904-0.91-1.345-1.374c-0.226-0.238-0.431-0.491-0.65-0.734c-0.19-0.21-0.406-0.404-0.588-0.62
	c-0.05-0.068-0.098-0.137-0.139-0.21c-0.003-0.012-0.006-0.024-0.009-0.036c-0.001-0.044,0.001-0.089,0.004-0.133
	c0.024-0.114,0.058-0.223,0.099-0.332c0.03-0.063,0.064-0.124,0.101-0.184c0.021-0.024,0.044-0.047,0.067-0.07
	c0.099-0.067,0.203-0.125,0.311-0.177c0.031-0.01,0.063-0.02,0.094-0.028c0.012,0,0.024,0,0.036,0
	C16.74,6.05,16.822,6.073,16.904,6.1c0.112,0.059,0.216,0.129,0.32,0.202c0.093,0.064,0.189,0.122,0.281,0.186
	c0.32,0.268,0.598,0.592,0.884,0.893c0.318,0.335,0.88,0.32,1.2,0c0.015-0.015,0.02-0.036,0.034-0.052
	c0.158-0.03,0.308-0.089,0.417-0.217c0.264-0.311,0.542-0.608,0.824-0.903c0.257-0.266,0.494-0.546,0.744-0.816
	c0.251-0.272,0.533-0.515,0.803-0.768c0.197-0.181,0.383-0.383,0.59-0.554c0.247-0.176,0.521-0.313,0.797-0.436
	c0.199-0.075,0.406-0.134,0.615-0.171c0.111-0.011,0.221-0.016,0.332-0.009c0.153,0.028,0.303,0.066,0.45,0.117
	c0.131,0.063,0.257,0.138,0.376,0.22c0.25,0.218,0.452,0.481,0.66,0.738c0.081,0.118,0.154,0.244,0.236,0.363
	c0.057,0.086,0.11,0.172,0.154,0.263c0.056,0.147,0.108,0.297,0.139,0.451c0.008,0.102,0.011,0.201,0.005,0.302
	C26.724,6.113,26.67,6.311,26.601,6.506z"/>
</svg>