<?xml version='1.0' encoding='iso-8859-1'?>
<svg fill="currentColor" height="800px" width="800px" version="1.1" xmlns="http://www.w3.org/2000/svg" viewBox="0 0 295.603 295.603">
  <g>
    <g>
      <path d="m258.937,14.683l-.233-.233c-19.267-19.267-50.504-19.267-69.77,0l-13.198,13.198-11.669-11.668-33.941,33.941 12.02,12.021-76.184,76.185c-15.14,15.14-18.227,37.754-9.289,55.958l-19.178,19.178 23.335,23.335 19.417-19.417c6.495,3.015 13.517,4.522 20.538,4.522 0.779,0 1.56-0.019 2.339-0.056 11.686-0.558 23.21-5.299 32.135-14.224l76.185-76.186 12.021,12.021 33.941-33.941-11.668-11.667 13.198-13.198c19.267-19.265 19.267-50.502 0.001-69.769zm-75.545,121.974l-46.685-46.685 16.73-16.74 46.689,46.689-16.734,16.736z"/>
      <path d="m42.575,238.784c0,0-20.358,17.023-20.358,36.461 0,11.244 9.115,20.358 20.358,20.358s20.358-9.114 20.358-20.358c0.001-19.668-20.358-36.461-20.358-36.461z"/>
    </g>
  </g>
</svg>
