<svg fill="#000000" width="800px" height="800px" viewBox="0 0 32 32" style="fill-rule:evenodd;clip-rule:evenodd;stroke-linejoin:round;stroke-miterlimit:2;" version="1.1" xml:space="preserve" xmlns="http://www.w3.org/2000/svg"><path d="M19.989,6.001l-0.991,0c-1.657,0 -3,1.343 -3,3c0,3.075 0,8.932 0,12.007c0,1.657 1.343,3 3,3l0.991,-0l0,5.071c0,0.552 0.448,1 1,1c0.552,0 1,-0.448 1,-1l0,-5.071l1.011,-0c1.657,-0 3,-1.343 3,-3l-0,-12.007c0,-1.657 -1.343,-3 -3,-3l-1.011,0l0,-1.001c0,-1.657 -1.343,-3 -3,-3l-9.989,0c-1.657,0 -3,1.343 -3,3c0,6.104 0,24.079 0,24.079c-0,0.552 0.448,1 1,1c0.552,0 1,-0.448 1,-1c0,0 0,-17.975 -0,-24.079c-0,-0.552 0.448,-1 1,-1c0,0 9.989,0 9.989,0c0.552,0 1,0.448 1,1l0,1.001Zm-1.991,13.963l0,1.044c0,0.552 0.448,1 1,1c0,-0 4.002,-0 4.002,-0c0.552,-0 1,-0.448 1,-1l-0,-12.007c0,-0.552 -0.448,-1 -1,-1c0,0 -4.002,0 -4.002,0c-0.552,0 -1,0.448 -1,1l0,0.99l2.006,0.009c0.552,0.002 0.998,0.453 0.996,1.004c-0.002,0.552 -0.453,0.998 -1.004,0.996l-1.998,-0.009l0,1.973l2.006,0.009c0.552,0.003 0.998,0.453 0.996,1.005c-0.002,0.552 -0.453,0.998 -1.004,0.995l-1.998,-0.009l0,2l2.006,0.009c0.552,0.003 0.998,0.453 0.996,1.005c-0.002,0.552 -0.453,0.998 -1.004,0.995l-1.998,-0.009Z"/></svg>
