<?xml version="1.0" encoding="iso-8859-1"?>
<!-- Uploaded to: SVG Repo, www.svgrepo.com, Generator: SVG Repo Mixer Tools -->
<!DOCTYPE svg PUBLIC "-//W3C//DTD SVG 1.1//EN" "http://www.w3.org/Graphics/SVG/1.1/DTD/svg11.dtd">
<svg fill="#000000" height="800px" width="800px" version="1.1" id="Capa_1" xmlns="http://www.w3.org/2000/svg" xmlns:xlink="http://www.w3.org/1999/xlink" 
	 viewBox="0 0 59 59" xml:space="preserve">
<g>
	<circle cx="50" cy="50.951" r="1"/>
	<circle cx="54" cy="50.951" r="1"/>
	<circle cx="58" cy="50.951" r="1"/>
	<circle cx="50" cy="46.951" r="1"/>
	<circle cx="54" cy="46.951" r="1"/>
	<circle cx="58" cy="46.951" r="1"/>
	<circle cx="50" cy="54.951" r="1"/>
	<circle cx="54" cy="54.951" r="1"/>
	<circle cx="58" cy="54.951" r="1"/>
	<path d="M19.943,12.199L17.57,2.682c-0.387-1.55-1.771-2.633-3.367-2.633c-0.282,0-0.565,0.035-0.842,0.104L2.634,2.827
		c-0.9,0.224-1.659,0.786-2.137,1.581S-0.12,6.136,0.104,7.036L3.566,20.92L19.943,12.199z M12.846,4.404l0.971-0.242
		c0.535-0.136,1.078,0.193,1.212,0.729c0.133,0.536-0.193,1.079-0.729,1.212l-0.971,0.242c-0.081,0.021-0.162,0.03-0.242,0.03
		c-0.448,0-0.856-0.304-0.97-0.758C11.984,5.079,12.31,4.537,12.846,4.404z M4.113,6.581l5.822-1.452
		c0.535-0.136,1.079,0.192,1.213,0.729c0.133,0.536-0.193,1.079-0.729,1.212L4.597,8.521c-0.081,0.021-0.163,0.03-0.243,0.03
		c-0.448,0-0.856-0.303-0.97-0.758C3.251,7.257,3.578,6.714,4.113,6.581z"/>
	<path d="M23,13.294L2.988,23.951l8.228,33.481c0.237,0.894,1.049,1.519,1.975,1.519H47v-18l-17.437-0.032L23,13.294z M18.71,42.661
		c-0.19,0.18-0.45,0.29-0.71,0.29s-0.521-0.11-0.71-0.29c-0.181-0.19-0.29-0.45-0.29-0.71c0-0.26,0.109-0.52,0.29-0.71
		c0.37-0.37,1.04-0.37,1.42,0c0.18,0.19,0.29,0.45,0.29,0.71C19,42.211,18.89,42.471,18.71,42.661z M25,42.951h-4
		c-0.553,0-1-0.448-1-1s0.447-1,1-1h4c0.553,0,1,0.448,1,1S25.553,42.951,25,42.951z"/>
</g>
</svg>