<?xml version="1.0" encoding="iso-8859-1"?>
<!-- Uploaded to: SVG Repo, www.svgrepo.com, Generator: SVG Repo Mixer Tools -->
<svg fill="#000000" height="800px" width="800px" version="1.1" id="Layer_1" xmlns="http://www.w3.org/2000/svg" xmlns:xlink="http://www.w3.org/1999/xlink" 
	 viewBox="0 0 512 512" xml:space="preserve">
<g>
	<g>
		<g>
			<path d="M62.17,492.096c-5.102,2.948-6.851,9.472-3.904,14.569c2.946,5.1,9.469,6.851,14.571,3.902
				c5.101-2.942,6.85-9.465,3.903-14.569C73.797,490.898,67.27,489.151,62.17,492.096z"/>
			<path d="M84.256,409.669c-5.099,2.946-6.849,9.469-3.904,14.569c2.945,5.104,9.468,6.849,14.571,3.906
				c5.102-2.948,6.848-9.472,3.904-14.569C95.881,408.472,89.358,406.721,84.256,409.669z"/>
			<path d="M114.426,461.932c-5.1,2.942-6.849,9.465-3.904,14.569c2.945,5.1,9.468,6.849,14.57,3.902
				c5.102-2.943,6.851-9.472,3.904-14.569C126.052,460.734,119.529,458.983,114.426,461.932z"/>
			<path d="M32.002,439.843c-5.102,2.948-6.853,9.472-3.904,14.572c2.942,5.098,9.467,6.849,14.567,3.904
				c5.102-2.946,6.852-9.469,3.906-14.57C43.624,438.645,37.101,436.896,32.002,439.843z"/>
			<path d="M64.753,375.884c5.101-2.942,6.85-9.472,3.903-14.569c-2.944-5.1-9.467-6.851-14.57-3.902
				c-5.1,2.942-6.848,9.465-3.904,14.565C53.129,377.082,59.652,378.832,64.753,375.884z"/>
			<path d="M136.513,379.494c-5.101,2.948-6.851,9.472-3.905,14.572c2.945,5.102,9.47,6.848,14.571,3.906
				c5.101-2.948,6.851-9.472,3.903-14.572C148.136,378.3,141.613,376.553,136.513,379.494z"/>
			<path d="M471.839,114.064L371.272,13.494C362.57,4.792,350.962-0.001,338.586,0c-12.374,0-23.98,4.792-32.686,13.494
				l-12.452,12.452h-0.001L129.91,189.486c-17.177,17.174-17.97,44.609-2.41,62.75l-22.734,22.733c-2,2-3.126,4.713-3.126,7.542
				c0,2.829,1.125,5.542,3.126,7.544l90.513,90.513c2.083,2.081,4.813,3.123,7.543,3.123c2.73,0,5.46-1.042,7.543-3.123
				l22.733-22.733c8.35,7.165,18.891,11.084,30.063,11.084c12.375,0,23.982-4.793,32.686-13.495l175.992-175.99
				c8.704-8.702,13.495-20.312,13.495-32.686C485.334,134.375,480.543,122.767,471.839,114.064z M202.823,357.94l-75.427-75.429
				l15.085-15.083l75.428,75.426L202.823,357.94z M456.753,164.347L280.76,340.338c-4.673,4.672-10.923,7.246-17.599,7.246
				c-6.675,0-12.925-2.574-17.598-7.246l-5.014-5.016c-0.004-0.004-0.008-0.009-0.012-0.013l-90.514-90.513
				c-0.004-0.004-0.011-0.009-0.016-0.013l-5.012-5.013c-9.706-9.705-9.706-25.495,0-35.2L300.99,48.576l38.182,38.182
				c2.083,2.082,4.813,3.124,7.542,3.124c2.73,0,5.461-1.042,7.543-3.124c4.167-4.166,4.167-10.92,0.002-15.086L316.077,33.49
				l4.909-4.909c4.675-4.673,10.926-7.246,17.601-7.246c6.676-0.001,12.926,2.573,17.599,7.246L456.753,129.15
				c4.673,4.673,7.246,10.922,7.246,17.598S461.427,159.674,456.753,164.347z"/>
			<path d="M342.453,143.869c-5.624-5.623-12.877-9.025-20.693-9.767c-10.98-6.04-23.358-9.223-35.976-9.223
				c-19.943,0-38.692,7.766-52.795,21.868c-26.55,26.552-28.872,68.282-6.995,97.506l-5.48,5.48c-4.166,4.165-4.167,10.919,0,15.087
				c2.083,2.081,4.813,3.123,7.542,3.123c2.731,0,5.461-1.042,7.543-3.123l5.469-5.469c12.839,9.64,28.376,14.862,44.719,14.862
				c19.943,0,38.694-7.765,52.797-21.866c22.858-22.858,28.314-58.166,13.711-86.762
				C351.765,157.378,348.323,149.736,342.453,143.869z M307.968,160.993c0.016-0.025,0.028-0.05,0.044-0.073
				c0.186-0.281,0.392-0.553,0.602-0.821c0.051-0.065,0.096-0.135,0.149-0.201c0.226-0.277,0.471-0.542,0.726-0.804
				c0.044-0.044,0.081-0.094,0.125-0.138c0.354-0.354,0.732-0.677,1.119-0.984c2.194-1.731,4.888-2.682,7.794-2.693
				c3.341,0.011,6.482,1.312,8.845,3.677c2.371,2.369,3.676,5.521,3.676,8.873c-0.002,0.263-0.025,0.522-0.041,0.782
				c-0.013,0.202-0.021,0.402-0.042,0.602c-0.021,0.192-0.055,0.381-0.085,0.571c-0.033,0.214-0.063,0.429-0.108,0.642
				c-0.034,0.164-0.081,0.325-0.122,0.49c-0.059,0.229-0.112,0.461-0.183,0.686c-0.045,0.142-0.1,0.279-0.15,0.419
				c-0.085,0.238-0.166,0.477-0.266,0.71c-0.053,0.127-0.118,0.25-0.176,0.375c-0.11,0.236-0.219,0.475-0.343,0.704
				c-0.068,0.129-0.15,0.25-0.224,0.375c-0.129,0.219-0.255,0.44-0.397,0.652c-0.105,0.155-0.223,0.3-0.335,0.45
				c-0.127,0.171-0.249,0.348-0.385,0.514c-0.258,0.313-0.531,0.617-0.822,0.907c-1.071,1.073-2.308,1.915-3.646,2.529
				c-1.621,0.744-3.393,1.15-5.229,1.15c-3.355,0-6.507-1.307-8.877-3.679c-0.439-0.44-0.829-0.912-1.194-1.402
				c-0.133-0.181-0.277-0.359-0.4-0.546c-0.051-0.077-0.093-0.158-0.142-0.236c-0.177-0.279-0.35-0.56-0.501-0.85
				c-0.001,0-0.001-0.002-0.003-0.004C305.288,169.686,305.486,164.808,307.968,160.993z M323.502,237.261
				c-10.072,10.071-23.467,15.618-37.712,15.618c-14.244,0-27.635-5.544-37.707-15.611c-0.002-0.002-0.004-0.004-0.006-0.006
				s-0.004-0.004-0.006-0.006c-20.786-20.797-20.784-54.629,0.006-75.422c10.072-10.071,23.464-15.618,37.709-15.618
				c2.113,0,4.218,0.125,6.301,0.371c-0.094,0.116-0.18,0.236-0.272,0.354c-0.236,0.298-0.468,0.596-0.692,0.902
				c-0.015,0.019-0.028,0.041-0.043,0.061c-4.202,5.755-6.476,12.665-6.476,19.929c0,6.875,2.037,13.437,5.82,19
				c0.05,0.075,0.105,0.148,0.157,0.223c0.243,0.35,0.487,0.7,0.745,1.044c0.163,0.221,0.338,0.435,0.509,0.652
				c0.156,0.196,0.305,0.396,0.465,0.59c0.697,0.848,1.439,1.668,2.229,2.461c6.401,6.399,14.91,9.924,23.961,9.924
				c0.001,0,0,0,0.001,0c0.021,0,0.042-0.002,0.063-0.002c0.809-0.002,1.611-0.039,2.409-0.096c0.175-0.013,0.348-0.025,0.521-0.039
				c0.787-0.068,1.568-0.162,2.341-0.284c0.16-0.025,0.319-0.057,0.477-0.083c0.756-0.13,1.505-0.279,2.245-0.461
				c0.061-0.013,0.121-0.025,0.179-0.039c0.777-0.192,1.544-0.421,2.302-0.669c0.161-0.052,0.323-0.105,0.482-0.159
				c0.74-0.254,1.472-0.531,2.193-0.837c0.13-0.054,0.258-0.114,0.387-0.171c0.689-0.302,1.369-0.625,2.035-0.973
				c0.075-0.039,0.15-0.073,0.223-0.112c0.705-0.375,1.394-0.78,2.073-1.204c0.142-0.09,0.283-0.179,0.423-0.269
				c0.667-0.431,1.323-0.885,1.962-1.364c0.03-0.022,0.064-0.044,0.094-0.067C340.206,210.245,334.858,225.903,323.502,237.261z"/>
			<circle cx="264.103" cy="192.941" r="10.665"/>
			<path d="M284.845,213.686c-4.164,4.167-4.164,10.921,0,15.089c4.165,4.162,10.92,4.162,15.087,0
				c4.162-4.167,4.162-10.921,0-15.089C295.767,209.525,289.011,209.525,284.845,213.686z"/>
			<path d="M375.858,93.278c-4.202-4.128-10.956-4.071-15.086,0.132c-4.128,4.202-4.07,10.956,0.132,15.086l0.18,0.177
				c2.077,2.041,4.777,3.058,7.477,3.058c2.761,0,5.521-1.066,7.609-3.191c4.129-4.202,4.07-10.956-0.132-15.086L375.858,93.278z"/>
		</g>
	</g>
</g>
</svg>