<?xml version="1.0" encoding="iso-8859-1"?>
<!-- Uploaded to: SVG Repo, www.svgrepo.com, Generator: SVG Repo Mixer Tools -->
<svg height="800px" width="800px" version="1.1" id="Capa_1" xmlns="http://www.w3.org/2000/svg" xmlns:xlink="http://www.w3.org/1999/xlink" 
	 viewBox="0 0 54.236 54.236" xml:space="preserve">
<g>
	<path style="fill:#010002;" d="M30.19,3.661c0.121-0.288,0.198-0.593,0.198-0.916C30.388,1.228,28.945,0,27.167,0
		c-1.78,0-3.222,1.229-3.222,2.745c0,0.313,0.074,0.609,0.189,0.89c-4.197,1.339-7.26,5.42-7.26,10.238v29.659
		c0,5.902,4.596,10.704,10.244,10.704s10.244-4.802,10.244-10.704v-29.66C37.363,9.088,34.343,5.028,30.19,3.661z M34.363,43.531
		c0,4.248-3.25,7.704-7.244,7.704s-7.244-3.456-7.244-7.704V13.872c0-4.248,3.25-7.704,7.244-7.704s7.244,3.456,7.244,7.704V43.531z
		"/>
	<path style="fill:#010002;" d="M27.119,8.625c-2.445,0-4.43,2.06-4.43,4.602v30.948c0,2.542,1.984,4.602,4.43,4.602
		s4.43-2.06,4.43-4.602V13.227C31.549,10.685,29.565,8.625,27.119,8.625z"/>
</g>
</svg>