<svg xmlns="http://www.w3.org/2000/svg" viewBox="0 0 200 200" width="800" height="800">
  <rect x="0" y="0" width="200" height="200" rx="24" fill="#f4f6f8" />
  
  <circle cx="100" cy="100" r="90" fill="#a5bcd0" />

  <path d="M 157.8,168.9 A 90 90 0 1 0 36.4,163.6" fill="none" stroke="#000" stroke-width="8" stroke-linecap="round" />
  <path d="M 76.7,186.9 A 90 90 0 0 0 123.3,186.9" fill="none" stroke="#000" stroke-width="8" stroke-linecap="round" />

  <path d="M 32,95 A 72 72 0 0 1 95,32" fill="none" stroke="#000" stroke-width="4" stroke-linecap="round" />

  <circle cx="26" cy="108" r="3.5" fill="#000" />
  <circle cx="26" cy="124" r="3.5" fill="#000" />
  <circle cx="168" cy="78" r="3.5" fill="#000" />

  <g transform="translate(85, 95) rotate(35)">
    <path d="M -20,0 L -20,25 A 20 20 0 0 0 20,25 L 20,0 Z" fill="#f3dfb7" />
    
    <path d="M -20,0 L -20,-25 A 20 20 0 0 1 20,-25 L 20,0 Z" fill="#bc243c" />
    
    <line x1="-20" y1="0" x2="20" y2="0" stroke="#000" stroke-width="6" />
    
    <rect x="-20" y="-45" width="40" height="90" rx="20" fill="none" stroke="#000" stroke-width="6" stroke-linejoin="round" />
    
    <circle cx="7" cy="-25" r="3.5" fill="#000" />
    <line x1="7" y1="-18" x2="7" y2="0" stroke="#000" stroke-width="4" stroke-linecap="round" />
  </g>

  <g transform="translate(112, 132)">
    <path d="M -28,-5 L -28,12 A 28 11 0 0 0 28,12 L 28,-5 Z" fill="#d8843e" stroke="#000" stroke-width="6" stroke-linejoin="round" />
    
    <ellipse cx="0" cy="-5" rx="28" ry="11" fill="#d8843e" stroke="#000" stroke-width="6" />
  </g>
</svg>
